<svg width="180" height="60" viewBox="0 0 180 60" fill="none" xmlns="http://www.w3.org/2000/svg">
<rect x="0.5" y="0.5" width="179" height="59" rx="6.5" fill="#0C0D10"/>
<rect x="0.5" y="0.5" width="179" height="59" rx="6.5" stroke="#A6A6A6"/>
<path d="M122.289 28.8015V32.2381H120.135V34.4917H122.289V42.1492C122.289 44.7639 123.472 45.8098 126.448 45.8098C126.97 45.8098 127.469 45.7476 127.904 45.6729V43.4441C127.531 43.4815 127.294 43.5064 126.883 43.5064C125.551 43.5064 124.966 42.8838 124.966 41.4644V34.4917H127.904V32.2381H124.966V28.8015H122.289Z" fill="white"/>
<path d="M135.485 45.9966C139.445 45.9966 141.873 43.3445 141.873 38.9492C141.873 34.5789 139.432 31.9143 135.485 31.9143C131.526 31.9143 129.085 34.5789 129.085 38.9492C129.085 43.3445 131.513 45.9966 135.485 45.9966ZM135.485 43.6184C133.157 43.6184 131.849 41.9126 131.849 38.9492C131.849 36.0108 133.157 34.2925 135.485 34.2925C137.801 34.2925 139.121 36.0108 139.121 38.9492C139.121 41.9002 137.801 43.6184 135.485 43.6184Z" fill="white"/>
<path d="M143.95 45.7351H146.627V37.729C146.627 35.824 148.059 34.5415 150.088 34.5415C150.561 34.5415 151.358 34.6287 151.582 34.7034V32.0637C151.296 31.989 150.786 31.9517 150.387 31.9517C148.619 31.9517 147.112 32.9229 146.726 34.2551H146.527V32.1758H143.95V45.7351Z" fill="white"/>
<path d="M158.229 34.1929C160.209 34.1929 161.504 35.575 161.566 37.7041H154.718C154.868 35.5874 156.25 34.1929 158.229 34.1929ZM161.554 42.0745C161.056 43.1328 159.948 43.718 158.329 43.718C156.187 43.718 154.805 42.2114 154.718 39.8333V39.6839H164.293V38.75C164.293 34.4917 162.015 31.9143 158.242 31.9143C154.419 31.9143 151.991 34.666 151.991 38.999C151.991 43.3321 154.37 45.9966 158.254 45.9966C161.355 45.9966 163.521 44.5025 164.131 42.0745H161.554Z" fill="white"/>
<path d="M104.733 40.7279C104.94 44.0574 107.715 46.1868 111.844 46.1868C116.258 46.1868 119.02 43.9542 119.02 40.3923C119.02 37.5919 117.445 36.0433 113.625 35.1528L111.573 34.6495C109.147 34.0817 108.166 33.3203 108.166 31.991C108.166 30.3133 109.689 29.2164 111.973 29.2164C114.141 29.2164 115.638 30.2875 115.909 32.0039H118.723C118.555 28.8679 115.793 26.6611 112.012 26.6611C107.947 26.6611 105.237 28.8679 105.237 32.1846C105.237 34.9205 106.772 36.5466 110.141 37.3338L112.541 37.9145C115.006 38.4953 116.09 39.347 116.09 40.7666C116.09 42.4185 114.387 43.6187 112.064 43.6187C109.573 43.6187 107.844 42.4959 107.598 40.7279H104.733Z" fill="white"/>
<path d="M77.0025 31.9517C75.1597 31.9517 73.5659 32.8731 72.7442 34.417H72.5449V32.1758H69.9675V50.2425H72.6445V43.6807H72.8562C73.5659 45.1126 75.0974 45.9592 77.0274 45.9592C80.4514 45.9592 82.6304 43.2573 82.6304 38.9492C82.6304 34.6411 80.4514 31.9517 77.0025 31.9517ZM76.2429 43.5562C74.0017 43.5562 72.5947 41.7881 72.5947 38.9617C72.5947 36.1228 74.0017 34.3548 76.2554 34.3548C78.5215 34.3548 79.8787 36.0855 79.8787 38.9492C79.8787 41.8255 78.5215 43.5562 76.2429 43.5562Z" fill="white"/>
<path d="M91.9977 31.9517C90.1549 31.9517 88.5611 32.8731 87.7393 34.417H87.5401V32.1758H84.9627V50.2425H87.6397V43.6807H87.8514C88.5611 45.1126 90.0926 45.9592 92.0226 45.9592C95.4466 45.9592 97.6256 43.2573 97.6256 38.9492C97.6256 34.6411 95.4466 31.9517 91.9977 31.9517ZM91.2381 43.5562C88.9969 43.5562 87.5899 41.7881 87.5899 38.9617C87.5899 36.1228 88.9969 34.3548 91.2506 34.3548C93.5167 34.3548 94.8739 36.0855 94.8739 38.9492C94.8739 41.8255 93.5167 43.5562 91.2381 43.5562Z" fill="white"/>
<path d="M65.1645 45.7351H68.236L61.5123 27.1128H58.4022L51.6785 45.7351H54.6467L56.3631 40.7924H63.461L65.1645 45.7351ZM59.8089 30.494H60.0282L62.7254 38.3662H57.0987L59.8089 30.494Z" fill="white"/>
<path d="M53.4767 13.0665V22.05H56.7202C59.3972 22.05 60.9474 20.4003 60.9474 17.5303C60.9474 14.7039 59.3848 13.0665 56.7202 13.0665H53.4767ZM54.8712 14.3365H56.5646C58.426 14.3365 59.528 15.5194 59.528 17.549C59.528 19.6096 58.4447 20.78 56.5646 20.78H54.8712V14.3365Z" fill="white"/>
<path d="M65.695 22.1808C67.6748 22.1808 68.8887 20.8547 68.8887 18.6571C68.8887 16.4719 67.6685 15.1396 65.695 15.1396C63.7153 15.1396 62.4951 16.4719 62.4951 18.6571C62.4951 20.8547 63.7091 22.1808 65.695 22.1808ZM65.695 20.9917C64.5308 20.9917 63.8771 20.1388 63.8771 18.6571C63.8771 17.1879 64.5308 16.3287 65.695 16.3287C66.853 16.3287 67.5129 17.1879 67.5129 18.6571C67.5129 20.1326 66.853 20.9917 65.695 20.9917Z" fill="white"/>
<path d="M79.227 15.2704H77.8885L76.6807 20.4438H76.5749L75.1803 15.2704H73.8979L72.5033 20.4438H72.4037L71.1897 15.2704H69.8325L71.7002 22.05H73.0761L74.4706 17.0571H74.5764L75.9772 22.05H77.3655L79.227 15.2704Z" fill="white"/>
<path d="M80.7684 22.05H82.1069V18.0844C82.1069 17.026 82.7357 16.3661 83.7256 16.3661C84.7154 16.3661 85.1886 16.9077 85.1886 17.9972V22.05H86.5271V17.661C86.5271 16.0486 85.6928 15.1396 84.18 15.1396C83.159 15.1396 82.4867 15.5941 82.1567 16.3474H82.0571V15.2704H80.7684V22.05Z" fill="white"/>
<path d="M88.6351 22.05H89.9736V12.6245H88.6351V22.05Z" fill="white"/>
<path d="M95.0076 22.1808C96.9873 22.1808 98.2013 20.8547 98.2013 18.6571C98.2013 16.4719 96.9811 15.1396 95.0076 15.1396C93.0278 15.1396 91.8076 16.4719 91.8076 18.6571C91.8076 20.8547 93.0216 22.1808 95.0076 22.1808ZM95.0076 20.9917C93.8434 20.9917 93.1897 20.1388 93.1897 18.6571C93.1897 17.1879 93.8434 16.3287 95.0076 16.3287C96.1655 16.3287 96.8254 17.1879 96.8254 18.6571C96.8254 20.1326 96.1655 20.9917 95.0076 20.9917Z" fill="white"/>
<path d="M102.189 21.0353C101.461 21.0353 100.932 20.6804 100.932 20.0703C100.932 19.4727 101.355 19.1552 102.289 19.0929L103.945 18.9871V19.5536C103.945 20.394 103.198 21.0353 102.189 21.0353ZM101.847 22.1621C102.737 22.1621 103.478 21.7761 103.883 21.0975H103.989V22.05H105.277V17.4182C105.277 15.9863 104.319 15.1396 102.619 15.1396C101.081 15.1396 99.9855 15.8867 99.8486 17.0509H101.144C101.293 16.5715 101.81 16.2976 102.557 16.2976C103.472 16.2976 103.945 16.7023 103.945 17.4182V18.0034L102.108 18.1093C100.496 18.2089 99.5871 18.9124 99.5871 20.1326C99.5871 21.3715 100.54 22.1621 101.847 22.1621Z" fill="white"/>
<path d="M109.819 22.1621C110.753 22.1621 111.544 21.7201 111.949 20.9792H112.054V22.05H113.337V12.6245H111.998V16.3474H111.899C111.532 15.6003 110.747 15.1583 109.819 15.1583C108.107 15.1583 107.006 16.5155 107.006 18.6571C107.006 20.8049 108.095 22.1621 109.819 22.1621ZM110.199 16.3599C111.32 16.3599 112.023 17.2501 112.023 18.6633C112.023 20.0828 111.326 20.9606 110.199 20.9606C109.066 20.9606 108.388 20.0952 108.388 18.6571C108.388 17.2314 109.072 16.3599 110.199 16.3599Z" fill="white"/>
<path d="M122.017 22.1808C123.996 22.1808 125.21 20.8547 125.21 18.6571C125.21 16.4719 123.99 15.1396 122.017 15.1396C120.037 15.1396 118.817 16.4719 118.817 18.6571C118.817 20.8547 120.031 22.1808 122.017 22.1808ZM122.017 20.9917C120.852 20.9917 120.199 20.1388 120.199 18.6571C120.199 17.1879 120.852 16.3287 122.017 16.3287C123.175 16.3287 123.835 17.1879 123.835 18.6571C123.835 20.1326 123.175 20.9917 122.017 20.9917Z" fill="white"/>
<path d="M126.982 22.05H128.321V18.0844C128.321 17.026 128.949 16.3661 129.939 16.3661C130.929 16.3661 131.402 16.9077 131.402 17.9972V22.05H132.741V17.661C132.741 16.0486 131.907 15.1396 130.394 15.1396C129.373 15.1396 128.7 15.5941 128.37 16.3474H128.271V15.2704H126.982V22.05Z" fill="white"/>
<path d="M138.905 13.5833V15.3015H137.828V16.4283H138.905V20.2571C138.905 21.5645 139.497 22.0874 140.985 22.0874C141.246 22.0874 141.495 22.0563 141.713 22.0189V20.9045C141.526 20.9232 141.408 20.9357 141.203 20.9357C140.537 20.9357 140.244 20.6244 140.244 19.9147V16.4283H141.713V15.3015H140.244V13.5833H138.905Z" fill="white"/>
<path d="M143.51 22.05H144.848V18.0906C144.848 17.0634 145.458 16.3723 146.554 16.3723C147.5 16.3723 148.005 16.9202 148.005 18.0034V22.05H149.343V17.6735C149.343 16.061 148.453 15.1459 147.009 15.1459C145.988 15.1459 145.272 15.6003 144.942 16.3599H144.836V12.6245H143.51V22.05Z" fill="white"/>
<path d="M154.172 16.2789C155.162 16.2789 155.809 16.97 155.84 18.0345H152.416C152.491 16.9762 153.182 16.2789 154.172 16.2789ZM155.834 20.2197C155.585 20.7489 155.031 21.0415 154.222 21.0415C153.151 21.0415 152.46 20.2882 152.416 19.0991V19.0244H157.204V18.5575C157.204 16.4283 156.064 15.1396 154.178 15.1396C152.267 15.1396 151.053 16.5155 151.053 18.682C151.053 20.8485 152.242 22.1808 154.184 22.1808C155.734 22.1808 156.818 21.4337 157.123 20.2197H155.834Z" fill="white"/>
<path d="M37.1535 30.4511C37.186 27.9296 38.5401 25.5437 40.6883 24.223C39.3331 22.2875 37.0632 21.0604 34.7016 20.9865C32.1827 20.7221 29.7408 22.4937 28.4572 22.4937C27.1488 22.4937 25.1726 21.0127 23.0445 21.0565C20.2706 21.1461 17.6847 22.7232 16.3351 25.1483C13.4341 30.171 15.598 37.5525 18.3769 41.6125C19.7673 43.6005 21.3922 45.8212 23.5184 45.7424C25.5989 45.6561 26.376 44.4157 28.8875 44.4157C31.3756 44.4157 32.1046 45.7424 34.274 45.6923C36.5065 45.6561 37.9131 43.6955 39.2547 41.6886C40.2537 40.2721 41.0224 38.7065 41.5323 37.0499C38.9087 35.9402 37.1566 33.2998 37.1535 30.4511Z" fill="white"/>
<path d="M33.056 18.3165C34.2733 16.8552 34.873 14.9769 34.7278 13.0806C32.868 13.2759 31.1501 14.1647 29.9164 15.57C28.71 16.943 28.0821 18.7882 28.2008 20.6121C30.0613 20.6312 31.8902 19.7665 33.056 18.3165Z" fill="white"/>
</svg>
