<svg width="203" height="60" viewBox="0 0 203 60" fill="none" xmlns="http://www.w3.org/2000/svg">
<rect x="0.5" y="0.5" width="201.5" height="59" rx="4.5" fill="black"/>
<rect x="0.5" y="0.5" width="201.5" height="59" rx="4.5" stroke="#A6A6A6"/>
<path d="M102.204 32.6268C98.676 32.6268 95.8005 35.3103 95.8005 39.0063C95.8005 42.6798 98.676 45.3858 102.204 45.3858C105.733 45.3858 108.609 42.6798 108.609 39.0063C108.607 35.3103 105.732 32.6268 102.204 32.6268ZM102.204 42.8748C100.27 42.8748 98.604 41.2803 98.604 39.0078C98.604 36.7113 100.272 35.1408 102.204 35.1408C104.137 35.1408 105.804 36.7113 105.804 39.0078C105.804 41.2788 104.137 42.8748 102.204 42.8748ZM88.233 32.6268C84.705 32.6268 81.8295 35.3103 81.8295 39.0063C81.8295 42.6798 84.705 45.3858 88.233 45.3858C91.7625 45.3858 94.638 42.6798 94.638 39.0063C94.638 35.3103 91.7625 32.6268 88.233 32.6268ZM88.233 42.8748C86.2995 42.8748 84.633 41.2803 84.633 39.0078C84.633 36.7113 86.301 35.1408 88.233 35.1408C90.1665 35.1408 91.833 36.7113 91.833 39.0078C91.8345 41.2788 90.1665 42.8748 88.233 42.8748ZM71.616 34.5858V37.2918H78.093C77.8995 38.8143 77.3925 39.9258 76.6185 40.6983C75.6765 41.6403 74.202 42.6798 71.616 42.6798C67.629 42.6798 64.512 39.4653 64.512 35.4783C64.512 31.4913 67.629 28.2768 71.616 28.2768C73.767 28.2768 75.3375 29.1228 76.497 30.2103L78.4065 28.3008C76.7865 26.7543 74.637 25.5708 71.616 25.5708C66.1545 25.5708 61.563 30.0168 61.563 35.4783C61.563 40.9398 66.1545 45.3858 71.616 45.3858C74.5635 45.3858 76.788 44.4183 78.5265 42.6063C80.3145 40.8183 80.871 38.3043 80.871 36.2748C80.871 35.6478 80.823 35.0673 80.7255 34.5843H71.616V34.5858ZM139.578 36.6873C139.047 35.2623 137.427 32.6268 134.116 32.6268C130.83 32.6268 128.098 35.2128 128.098 39.0063C128.098 42.5823 130.806 45.3858 134.43 45.3858C137.353 45.3858 139.045 43.5978 139.747 42.5583L137.572 41.1078C136.848 42.1713 135.856 42.8718 134.43 42.8718C133.005 42.8718 131.989 42.2193 131.337 40.9383L139.867 37.4103L139.578 36.6873ZM130.878 38.8143C130.806 36.3483 132.787 35.0928 134.214 35.0928C135.325 35.0928 136.267 35.6493 136.582 36.4458L130.878 38.8143ZM123.943 45.0003H126.745V26.2488H123.943V45.0003ZM119.35 34.0533H119.254C118.626 33.3033 117.417 32.6268 115.896 32.6268C112.705 32.6268 109.782 35.4303 109.782 39.0318C109.782 42.6078 112.705 45.3873 115.896 45.3873C117.418 45.3873 118.626 44.7108 119.254 43.9383H119.35V44.8563C119.35 47.2968 118.045 48.6018 115.944 48.6018C114.228 48.6018 113.164 47.3703 112.729 46.3308L110.289 47.3463C110.989 49.0368 112.849 51.1158 115.944 51.1158C119.23 51.1158 122.01 49.1823 122.01 44.4693V33.0153H119.352V34.0533H119.35ZM116.137 42.8748C114.204 42.8748 112.585 41.2548 112.585 39.0318C112.585 36.7833 114.204 35.1408 116.137 35.1408C118.045 35.1408 119.544 36.7833 119.544 39.0318C119.544 41.2548 118.045 42.8748 116.137 42.8748ZM152.709 26.2488H146.002V45.0003H148.8V37.8963H152.707C155.809 37.8963 158.86 35.6508 158.86 32.0733C158.86 28.4958 155.811 26.2488 152.709 26.2488ZM152.781 35.2863H148.8V28.8588H152.781C154.873 28.8588 156.061 30.5913 156.061 32.0733C156.061 33.5253 154.873 35.2863 152.781 35.2863ZM170.079 32.5938C168.052 32.5938 165.954 33.4863 165.085 35.4648L167.569 36.5013C168.1 35.4648 169.09 35.1258 170.127 35.1258C171.574 35.1258 173.046 35.9943 173.07 37.5378V37.7313C172.563 37.4418 171.477 37.0083 170.151 37.0083C167.473 37.0083 164.746 38.4798 164.746 41.2293C164.746 43.7388 166.942 45.3543 169.402 45.3543C171.283 45.3543 172.321 44.5098 172.972 43.5198H173.068V44.9673H175.771V37.7778C175.773 34.4508 173.286 32.5938 170.079 32.5938ZM169.74 42.8703C168.825 42.8703 167.545 42.4113 167.545 41.2773C167.545 39.8298 169.138 39.2748 170.514 39.2748C171.742 39.2748 172.323 39.5403 173.07 39.9018C172.852 41.6403 171.357 42.8703 169.74 42.8703ZM185.614 33.0033L182.406 41.1333H182.31L178.98 33.0033H175.965L180.958 44.3658L178.111 50.6868H181.03L188.727 33.0033H185.614ZM160.405 45.0003H163.203V26.2488H160.405V45.0003Z" fill="white"/>
<path d="M71.1271 15.3643C71.1271 16.6213 70.7551 17.6218 70.0096 18.3688C69.1636 19.2568 68.0596 19.7008 66.7036 19.7008C65.4046 19.7008 64.2991 19.2508 63.3916 18.3508C62.4826 17.4493 62.0281 16.3333 62.0281 15.0013C62.0281 13.6678 62.4826 12.5518 63.3916 11.6518C64.2991 10.7503 65.4046 10.3003 66.7036 10.3003C67.3486 10.3003 67.9651 10.4263 68.5501 10.6768C69.1366 10.9288 69.6061 11.2633 69.9571 11.6818L69.1666 12.4738C68.5711 11.7613 67.7506 11.4058 66.7021 11.4058C65.7541 11.4058 64.9351 11.7388 64.2436 12.4048C63.5521 13.0708 63.2071 13.9363 63.2071 14.9998C63.2071 16.0633 63.5521 16.9288 64.2436 17.5948C64.9351 18.2608 65.7541 18.5938 66.7021 18.5938C67.7071 18.5938 68.5456 18.2593 69.2161 17.5888C69.6511 17.1523 69.9031 16.5448 69.9706 15.7663H66.7021V14.6848H71.0626C71.1076 14.9203 71.1271 15.1468 71.1271 15.3643Z" fill="white"/>
<path d="M78.0422 11.6054H73.9442V14.4584H77.6402V15.5399H73.9442V18.3929H78.0422V19.4999H72.7877V10.4999H78.0422V11.6054Z" fill="white"/>
<path d="M82.9185 19.4999H81.7621V11.6054H79.248V10.4999H85.4325V11.6054H82.9185V19.4999Z" fill="white"/>
<path d="M89.907 19.4999V10.4999H91.0635V19.4999H89.907Z" fill="white"/>
<path d="M96.1922 19.4999H95.0357V11.6054H92.5217V10.4999H98.7062V11.6054H96.1922V19.4999Z" fill="white"/>
<path d="M110.413 18.3374C109.528 19.2464 108.429 19.7009 107.113 19.7009C105.798 19.7009 104.698 19.2464 103.815 18.3374C102.93 17.4284 102.489 16.3154 102.489 14.9999C102.489 13.6844 102.93 12.5714 103.815 11.6624C104.698 10.7534 105.798 10.2974 107.113 10.2974C108.421 10.2974 109.519 10.7549 110.407 11.6684C111.295 12.5819 111.739 13.6919 111.739 14.9999C111.739 16.3154 111.297 17.4284 110.413 18.3374ZM104.668 17.5829C105.334 18.2579 106.149 18.5939 107.113 18.5939C108.078 18.5939 108.894 18.2564 109.558 17.5829C110.224 16.9079 110.559 16.0469 110.559 14.9999C110.559 13.9529 110.224 13.0919 109.558 12.4169C108.894 11.7419 108.078 11.4059 107.113 11.4059C106.149 11.4059 105.334 11.7434 104.668 12.4169C104.004 13.0919 103.669 13.9529 103.669 14.9999C103.669 16.0469 104.004 16.9079 104.668 17.5829Z" fill="white"/>
<path d="M113.362 19.4999V10.4999H114.769L119.143 17.5004H119.193L119.143 15.7664V10.4999H120.3V19.4999H119.092L114.516 12.1589H114.466L114.516 13.8929V19.4999H113.362Z" fill="white"/>
<path d="M71.1271 15.3643C71.1271 16.6213 70.7551 17.6218 70.0096 18.3688C69.1636 19.2568 68.0596 19.7008 66.7036 19.7008C65.4046 19.7008 64.2991 19.2508 63.3916 18.3508C62.4826 17.4493 62.0281 16.3333 62.0281 15.0013C62.0281 13.6678 62.4826 12.5518 63.3916 11.6518C64.2991 10.7503 65.4046 10.3003 66.7036 10.3003C67.3486 10.3003 67.9651 10.4263 68.5501 10.6768C69.1366 10.9288 69.6061 11.2633 69.9571 11.6818L69.1666 12.4738C68.5711 11.7613 67.7506 11.4058 66.7021 11.4058C65.7541 11.4058 64.9351 11.7388 64.2436 12.4048C63.5521 13.0708 63.2071 13.9363 63.2071 14.9998C63.2071 16.0633 63.5521 16.9288 64.2436 17.5948C64.9351 18.2608 65.7541 18.5938 66.7021 18.5938C67.7071 18.5938 68.5456 18.2593 69.2161 17.5888C69.6511 17.1523 69.9031 16.5448 69.9706 15.7663H66.7021V14.6848H71.0626C71.1076 14.9203 71.1271 15.1468 71.1271 15.3643Z" stroke="white" stroke-width="0.2" stroke-miterlimit="10"/>
<path d="M78.0422 11.6054H73.9442V14.4584H77.6402V15.5399H73.9442V18.3929H78.0422V19.4999H72.7877V10.4999H78.0422V11.6054Z" stroke="white" stroke-width="0.2" stroke-miterlimit="10"/>
<path d="M82.9185 19.4999H81.7621V11.6054H79.248V10.4999H85.4325V11.6054H82.9185V19.4999Z" stroke="white" stroke-width="0.2" stroke-miterlimit="10"/>
<path d="M89.907 19.4999V10.4999H91.0635V19.4999H89.907Z" stroke="white" stroke-width="0.2" stroke-miterlimit="10"/>
<path d="M96.1922 19.4999H95.0357V11.6054H92.5217V10.4999H98.7062V11.6054H96.1922V19.4999Z" stroke="white" stroke-width="0.2" stroke-miterlimit="10"/>
<path d="M110.413 18.3374C109.528 19.2464 108.429 19.7009 107.113 19.7009C105.798 19.7009 104.698 19.2464 103.815 18.3374C102.93 17.4284 102.489 16.3154 102.489 14.9999C102.489 13.6844 102.93 12.5714 103.815 11.6624C104.698 10.7534 105.798 10.2974 107.113 10.2974C108.421 10.2974 109.519 10.7549 110.407 11.6684C111.295 12.5819 111.739 13.6919 111.739 14.9999C111.739 16.3154 111.297 17.4284 110.413 18.3374ZM104.668 17.5829C105.334 18.2579 106.149 18.5939 107.113 18.5939C108.078 18.5939 108.894 18.2564 109.558 17.5829C110.224 16.9079 110.559 16.0469 110.559 14.9999C110.559 13.9529 110.224 13.0919 109.558 12.4169C108.894 11.7419 108.078 11.4059 107.113 11.4059C106.149 11.4059 105.334 11.7434 104.668 12.4169C104.004 13.0919 103.669 13.9529 103.669 14.9999C103.669 16.0469 104.004 16.9079 104.668 17.5829Z" stroke="white" stroke-width="0.2" stroke-miterlimit="10"/>
<path d="M113.362 19.4999V10.4999H114.769L119.143 17.5004H119.193L119.143 15.7664V10.4999H120.3V19.4999H119.092L114.516 12.1589H114.466L114.516 13.8929V19.4999H113.362Z" stroke="white" stroke-width="0.2" stroke-miterlimit="10"/>
<g filter="url(#filter0_ii_83_1100)">
<path d="M15.654 11.3073C15.2175 11.7693 14.9595 12.4863 14.9595 13.4148V46.5888C14.9595 47.5187 15.2175 48.2343 15.654 48.6963L15.765 48.8043L34.3485 30.2208V30.0018V29.7828L15.765 11.1978L15.654 11.3073Z" fill="url(#paint0_linear_83_1100)"/>
<path d="M40.5419 36.4169L34.3484 30.2204V30.0014V29.7824L40.5434 23.5874L40.683 23.6669L48.0224 27.8369C50.1179 29.0279 50.1179 30.9764 48.0224 32.1689L40.683 36.3389L40.5419 36.4169Z" fill="url(#paint1_linear_83_1100)"/>
<g filter="url(#filter1_i_83_1100)">
<path d="M40.683 36.3375L34.347 30.0015L15.654 48.696C16.344 49.428 17.4855 49.518 18.771 48.789L40.683 36.3375Z" fill="url(#paint2_linear_83_1100)"/>
</g>
<path d="M40.683 23.6655L18.771 11.2155C17.4855 10.485 16.344 10.5765 15.654 11.3085L34.3485 30.003L40.683 23.6655Z" fill="url(#paint3_linear_83_1100)"/>
</g>
<defs>
<filter id="filter0_ii_83_1100" x="14.9595" y="10.7114" width="34.6346" height="38.5811" filterUnits="userSpaceOnUse" color-interpolation-filters="sRGB">
<feFlood flood-opacity="0" result="BackgroundImageFix"/>
<feBlend mode="normal" in="SourceGraphic" in2="BackgroundImageFix" result="shape"/>
<feColorMatrix in="SourceAlpha" type="matrix" values="0 0 0 0 0 0 0 0 0 0 0 0 0 0 0 0 0 0 127 0" result="hardAlpha"/>
<feOffset dy="-0.15"/>
<feComposite in2="hardAlpha" operator="arithmetic" k2="-1" k3="1"/>
<feColorMatrix type="matrix" values="0 0 0 0 0 0 0 0 0 0 0 0 0 0 0 0 0 0 0.12 0"/>
<feBlend mode="normal" in2="shape" result="effect1_innerShadow_83_1100"/>
<feColorMatrix in="SourceAlpha" type="matrix" values="0 0 0 0 0 0 0 0 0 0 0 0 0 0 0 0 0 0 127 0" result="hardAlpha"/>
<feOffset dy="0.15"/>
<feComposite in2="hardAlpha" operator="arithmetic" k2="-1" k3="1"/>
<feColorMatrix type="matrix" values="0 0 0 0 1 0 0 0 0 1 0 0 0 0 1 0 0 0 0.25 0"/>
<feBlend mode="normal" in2="effect1_innerShadow_83_1100" result="effect2_innerShadow_83_1100"/>
</filter>
<filter id="filter1_i_83_1100" x="15.654" y="30.0015" width="25.029" height="19.291" filterUnits="userSpaceOnUse" color-interpolation-filters="sRGB">
<feFlood flood-opacity="0" result="BackgroundImageFix"/>
<feBlend mode="normal" in="SourceGraphic" in2="BackgroundImageFix" result="shape"/>
<feColorMatrix in="SourceAlpha" type="matrix" values="0 0 0 0 0 0 0 0 0 0 0 0 0 0 0 0 0 0 127 0" result="hardAlpha"/>
<feOffset dy="-0.15"/>
<feComposite in2="hardAlpha" operator="arithmetic" k2="-1" k3="1"/>
<feColorMatrix type="matrix" values="0 0 0 0 0 0 0 0 0 0 0 0 0 0 0 0 0 0 0.08 0"/>
<feBlend mode="normal" in2="shape" result="effect1_innerShadow_83_1100"/>
</filter>
<linearGradient id="paint0_linear_83_1100" x1="32.7012" y1="13.0638" x2="7.52817" y2="38.2368" gradientUnits="userSpaceOnUse">
<stop stop-color="#00A0FF"/>
<stop offset="0.0066" stop-color="#00A1FF"/>
<stop offset="0.2601" stop-color="#00BEFF"/>
<stop offset="0.5122" stop-color="#00D2FF"/>
<stop offset="0.7604" stop-color="#00DFFF"/>
<stop offset="1" stop-color="#00E3FF"/>
</linearGradient>
<linearGradient id="paint1_linear_83_1100" x1="50.7502" y1="30.0014" x2="14.4564" y2="30.0014" gradientUnits="userSpaceOnUse">
<stop stop-color="#FFE000"/>
<stop offset="0.4087" stop-color="#FFBD00"/>
<stop offset="0.7754" stop-color="#FFA500"/>
<stop offset="1" stop-color="#FF9C00"/>
</linearGradient>
<linearGradient id="paint2_linear_83_1100" x1="37.2421" y1="33.4423" x2="3.1044" y2="67.5801" gradientUnits="userSpaceOnUse">
<stop stop-color="#FF3A44"/>
<stop offset="1" stop-color="#C31162"/>
</linearGradient>
<linearGradient id="paint3_linear_83_1100" x1="10.9461" y1="0.26524" x2="26.1895" y2="15.5087" gradientUnits="userSpaceOnUse">
<stop stop-color="#32A071"/>
<stop offset="0.0685" stop-color="#2DA771"/>
<stop offset="0.4762" stop-color="#15CF74"/>
<stop offset="0.8009" stop-color="#06E775"/>
<stop offset="1" stop-color="#00F076"/>
</linearGradient>
</defs>
</svg>
