<svg width="36" height="36" viewBox="0 0 36 36" fill="none" xmlns="http://www.w3.org/2000/svg">
<rect width="36" height="36" rx="4" fill="#191720"/>
<path fill-rule="evenodd" clip-rule="evenodd" d="M16.7145 16.4845H18.5715V17.4095C18.839 16.8775 19.525 16.3995 20.5555 16.3995C22.531 16.3995 23 17.4585 23 19.4015V23H21V19.844C21 18.7375 20.7325 18.1135 20.0515 18.1135C19.107 18.1135 18.7145 18.786 18.7145 19.8435V23H16.7145V16.4845ZM13.285 22.915H15.285V16.3995H13.285V22.915ZM15.5715 14.275C15.5716 14.4426 15.5383 14.6086 15.4737 14.7633C15.4091 14.918 15.3143 15.0583 15.195 15.176C14.9532 15.4163 14.6259 15.5508 14.285 15.55C13.9447 15.5498 13.6182 15.4156 13.376 15.1765C13.2571 15.0584 13.1627 14.9179 13.0982 14.7632C13.0337 14.6085 13.0003 14.4426 13 14.275C13 13.9365 13.135 13.6125 13.3765 13.3735C13.6184 13.1341 13.9451 12.9999 14.2855 13C14.6265 13 14.9535 13.1345 15.195 13.3735C15.436 13.6125 15.5715 13.9365 15.5715 14.275Z" fill="white"/>
</svg>
