<svg width="24" height="24" viewBox="0 0 24 24" fill="none" xmlns="http://www.w3.org/2000/svg">
<path d="M24 7.55147V18.175C24 20.0117 22.5158 21.5 20.6842 21.5H3.31579C2.43639 21.5 1.593 21.1497 0.971172 20.5261C0.349341 19.9026 0 19.0568 0 18.175V7.55147L11.6198 13.9608C11.8566 14.0913 12.144 14.0913 12.3802 13.9608L24 7.55083V7.55147ZM20.6842 2.5C21.5498 2.50008 22.381 2.83956 23.0003 3.44593C23.6196 4.0523 23.978 4.87748 23.9987 5.7452L12 12.3635L0.00126307 5.74457L0.00252643 5.68757C0.0378965 4.8302 0.402446 4.01974 1.01994 3.42567C1.63744 2.8316 2.46006 2.49992 3.31579 2.5H20.6842Z" fill="white"/>
</svg>
