<svg width="24" height="24" viewBox="0 0 24 24" fill="none" xmlns="http://www.w3.org/2000/svg">
<path d="M7.72961 1.15321C7.36867 0.28133 6.41711 -0.182732 5.50773 0.0657054L1.38273 1.19071C0.567106 1.41571 -8.01086e-05 2.15633 -8.01086e-05 3.00008C-8.01086e-05 14.597 9.40304 24.0001 20.9999 24.0001C21.8437 24.0001 22.5843 23.4329 22.8093 22.6173L23.9343 18.4923C24.1827 17.5829 23.7187 16.6313 22.8468 16.2704L18.3468 14.3954C17.5827 14.0766 16.6968 14.297 16.1765 14.9391L14.2827 17.2501C10.9827 15.6891 8.31086 13.0173 6.74992 9.71727L9.06086 7.82821C9.70304 7.30321 9.92336 6.42196 9.60461 5.65789L7.72961 1.15789V1.15321Z" fill="white"/>
</svg>
