<svg width="359" height="408" viewBox="0 0 359 408" fill="none" xmlns="http://www.w3.org/2000/svg">
<path d="M264.286 245.455C259.462 245.455 256.338 250.56 258.526 254.869L315.331 366.759C318.734 373.462 309.92 379.615 304.825 374.093L227.095 289.849C223.232 285.662 216.246 288.159 215.899 293.851L209.302 401.918C208.835 409.558 197.855 410.21 196.492 402.678L177.671 298.687C176.715 293.406 170.134 291.515 166.531 295.484L87.5223 382.53C82.2543 388.334 73.1509 381.509 77.2196 374.806L134.279 280.804C136.905 276.479 133.786 270.943 128.735 270.961L8.54218 271.385C1.07047 271.411 -0.479645 260.823 6.68466 258.698L116.996 225.968C122.35 224.38 123.309 217.193 118.56 214.249L3.09976 142.689C-3.28461 138.732 1.06104 128.884 8.27786 130.954L132.51 166.593C136.526 167.745 140.56 164.835 140.746 160.653L147.588 6.19126C147.926 -1.44252 158.866 -2.29588 160.379 5.19353L188.695 145.388C189.82 150.957 197.046 152.479 200.313 147.835L270.794 47.6313C275.263 41.2777 285.068 46.7612 282.019 53.9089L232.789 169.311C230.46 174.773 236.082 180.234 241.457 177.73L340.125 131.764C347.131 128.5 352.913 138.077 346.776 142.781L276.208 196.88C272.065 200.056 273.19 206.588 278.155 208.189L354.511 232.813C361.527 235.075 359.902 245.455 352.531 245.455H264.286Z" fill="#FFB700"/>
</svg>
