<svg width="36" height="36" viewBox="0 0 36 36" fill="none" xmlns="http://www.w3.org/2000/svg">
<rect width="36" height="36" rx="4" fill="#191720"/>
<path d="M24 14.1838C23.5506 14.3879 23.074 14.5219 22.586 14.5813C23.0943 14.2689 23.4847 13.7741 23.6685 13.1846C23.1852 13.4787 22.6565 13.6859 22.1051 13.7972C21.656 13.3066 21.0162 13 20.3081 13C18.9484 13 17.8461 14.1303 17.8461 15.5244C17.8461 15.7223 17.8679 15.915 17.9098 16.0998C15.8637 15.9945 14.0497 14.9895 12.8354 13.4621C12.6235 13.835 12.5021 14.2687 12.5021 14.7313C12.5021 15.6071 12.9367 16.3798 13.5973 16.8325C13.2064 16.82 12.824 16.7117 12.4822 16.5167C12.482 16.5273 12.482 16.5379 12.482 16.5485C12.482 17.7716 13.3306 18.792 14.4569 19.0239C14.0943 19.125 13.714 19.1398 13.3451 19.0672C13.6583 20.0701 14.5676 20.8 15.6449 20.8204C14.8023 21.4974 13.7407 21.9011 12.5873 21.9011C12.3885 21.9011 12.1926 21.8891 12 21.8658C13.0895 22.5821 14.3836 23 15.7739 23C20.3024 23 22.7786 19.1532 22.7786 15.8172C22.7786 15.7077 22.7763 15.5988 22.7715 15.4906C23.2535 15.1333 23.6695 14.6908 24 14.1838Z" fill="white"/>
</svg>
